<?xml version="1.0" encoding="UTF-8"?>
<svg xmlns="http://www.w3.org/2000/svg" viewBox="0 0 64 64" width="64" height="64">
  <title>Corda robusta</title>
  <rect width="64" height="64" fill="#1a1208" rx="4"/>
  <g>
  <path d="M6 22 Q14 10 22 22 T38 22 T56 22 Q58 24 58 26" stroke="#8a5a30" stroke-width="5" fill="none" stroke-linecap="round"/>
  <path d="M6 22 Q14 10 22 22 T38 22 T56 22 Q58 24 58 26" stroke="#6a4020" stroke-width="1.5" fill="none" stroke-linecap="round" opacity=".7"/>
  <path d="M6 32 Q14 20 22 32 T38 32 T56 32" stroke="#8a5a30" stroke-width="5" fill="none" stroke-linecap="round"/>
  <path d="M6 32 Q14 20 22 32 T38 32 T56 32" stroke="#5a3010" stroke-width="1.5" fill="none" stroke-linecap="round" opacity=".7"/>
  <path d="M6 42 Q14 30 22 42 T38 42 T56 42" stroke="#6a4020" stroke-width="5" fill="none" stroke-linecap="round"/>
  <path d="M6 42 Q14 30 22 42 T38 42 T56 42" stroke="#4a2010" stroke-width="1.5" fill="none" stroke-linecap="round" opacity=".7"/>
  <!-- Frays -->
  <line x1="6" y1="22" x2="3" y2="20" stroke="#8a5a30" stroke-width="1"/>
  <line x1="6" y1="22" x2="2" y2="24" stroke="#8a5a30" stroke-width="1"/>
</g>
</svg>
