<?xml version="1.0" encoding="UTF-8"?>
<svg xmlns="http://www.w3.org/2000/svg" viewBox="0 0 64 64" width="64" height="64">
  <title>Frammento di stella</title>
  <rect width="64" height="64" fill="#1a1208" rx="4"/>
  <g>
  <!-- Radiant halo -->
  <circle cx="32" cy="32" r="30" fill="#ffe080" opacity=".1">
    <animate attributeName="opacity" values=".05;.2;.05" dur="3s" repeatCount="indefinite"/>
  </circle>
  <circle cx="32" cy="32" r="22" fill="#ffc040" opacity=".15">
    <animate attributeName="r" values="20;26;20" dur="3s" repeatCount="indefinite"/>
    <animate attributeName="opacity" values=".1;.3;.1" dur="3s" repeatCount="indefinite"/>
  </circle>
  <!-- Star outline shadow -->
  <polygon points="32,4 38,24 58,28 42,40 48,60 32,48 16,60 22,40 6,28 26,24" fill="#d0a040" stroke="#1a0e05" stroke-width="2"/>
  <!-- Star body -->
  <polygon points="32,6 37,25 56,29 41,40 46,58 32,47 18,58 23,40 8,29 27,25" fill="#ffe080"/>
  <!-- Bright core -->
  <polygon points="32,10 36,25 48,28 38,38 42,52 32,44 22,52 26,38 16,28 28,25" fill="#fff4c0" opacity=".85"/>
  <!-- Vertical white ray -->
  <polygon points="32,4 34,24 32,40 30,24" fill="#ffffff" opacity=".85"/>
  <!-- Horizontal light ray -->
  <polygon points="6,28 26,30 32,32 26,34 6,28 58,28 42,30 32,32 42,34 58,28" fill="#ffffff" opacity=".4"/>
  <!-- Central sparkle -->
  <circle cx="32" cy="32" r="4" fill="#ffffff">
    <animate attributeName="r" values="3;5;3" dur="1.4s" repeatCount="indefinite"/>
    <animate attributeName="opacity" values=".7;1;.7" dur="1.4s" repeatCount="indefinite"/>
  </circle>
  <!-- Orbital sparkles -->
  <circle cx="52" cy="14" r="1.2" fill="#ffffff">
    <animate attributeName="opacity" values="0;1;0" dur="2s" repeatCount="indefinite"/>
  </circle>
  <circle cx="12" cy="50" r=".9" fill="#fff0c0">
    <animate attributeName="opacity" values="0;1;0" dur="2.4s" begin=".5s" repeatCount="indefinite"/>
  </circle>
  <circle cx="52" cy="52" r="1" fill="#ffffff">
    <animate attributeName="opacity" values="0;1;0" dur="1.8s" begin="1s" repeatCount="indefinite"/>
  </circle>
</g>
</svg>
