<?xml version="1.0" encoding="UTF-8"?>
<svg xmlns="http://www.w3.org/2000/svg" viewBox="0 0 64 64" width="64" height="64">
  <title>Gemma di potere</title>
  <rect width="64" height="64" fill="#1a1208" rx="4"/>
  <g>
  <!-- Outer aura pulse -->
  <circle cx="32" cy="32" r="28" fill="#4040a0" opacity=".15">
    <animate attributeName="r" values="24;30;24" dur="2.8s" repeatCount="indefinite"/>
    <animate attributeName="opacity" values=".1;.3;.1" dur="2.8s" repeatCount="indefinite"/>
  </circle>
  <!-- Gem outer -->
  <polygon points="32,6 52,26 32,58 12,26" fill="#4848b8" stroke="#1a0e05" stroke-width="2"/>
  <!-- Left bright facet -->
  <polygon points="32,6 12,26 32,32" fill="#7878d8" opacity=".85"/>
  <!-- Right dark facet -->
  <polygon points="32,6 52,26 32,32" fill="#2a2878" opacity=".8"/>
  <!-- Bottom left facet -->
  <polygon points="12,26 32,32 32,58" fill="#5858c0" opacity=".7"/>
  <!-- Bottom right dark -->
  <polygon points="52,26 32,32 32,58" fill="#1a1858" opacity=".75"/>
  <!-- Inner bright shard -->
  <polygon points="32,10 44,26 32,42 20,26" fill="#a0a0f0" stroke="#5858c0" stroke-width="1"/>
  <polygon points="32,10 44,26 32,26" fill="#d0d0ff" opacity=".8"/>
  <!-- Central glowing core -->
  <circle cx="32" cy="26" r="4" fill="#ffffff" opacity=".9">
    <animate attributeName="opacity" values=".5;1;.5" dur="1.6s" repeatCount="indefinite"/>
    <animate attributeName="r" values="3;5;3" dur="1.6s" repeatCount="indefinite"/>
  </circle>
  <!-- Sparkle highlight -->
  <polygon points="32,14 34,20 32,22 30,20" fill="#ffffff" opacity=".9"/>
  <!-- Facet edges -->
  <path d="M32 6 L32 58 M12 26 L52 26" stroke="#1a1858" stroke-width=".8" opacity=".6"/>
  <!-- Tiny sparkle orbiters -->
  <circle cx="48" cy="18" r="1" fill="#ffffff">
    <animate attributeName="opacity" values="0;1;0" dur="2s" repeatCount="indefinite"/>
  </circle>
  <circle cx="16" cy="40" r=".8" fill="#e0e0ff">
    <animate attributeName="opacity" values="0;1;0" dur="2.4s" begin=".6s" repeatCount="indefinite"/>
  </circle>
</g>
</svg>
