<?xml version="1.0" encoding="UTF-8"?>
<svg xmlns="http://www.w3.org/2000/svg" viewBox="0 0 64 64" width="64" height="64">
  <title>Lampada Eterna</title>
  <rect width="64" height="64" fill="#1a1208" rx="4"/>
  <g>
  <!-- Outer halo glow -->
  <circle cx="32" cy="14" r="20" fill="#ffc040" opacity=".12">
    <animate attributeName="r" values="16;22;16" dur="2.4s" repeatCount="indefinite"/>
    <animate attributeName="opacity" values=".08;.22;.08" dur="2.4s" repeatCount="indefinite"/>
  </circle>
  <!-- Base platform -->
  <rect x="20" y="52" width="24" height="8" fill="#5a3010" stroke="#1a0e05" stroke-width="1.5" rx="1"/>
  <rect x="20" y="52" width="24" height="2" fill="#8a5030" opacity=".8"/>
  <rect x="22" y="48" width="20" height="6" fill="#8a5030" stroke="#1a0e05" stroke-width="1.2"/>
  <!-- Lamp body (oil vessel) -->
  <path d="M18 48 L46 48 L42 30 Q42 24 32 24 Q22 24 22 30 Z" fill="#c08850" stroke="#1a0e05" stroke-width="2"/>
  <!-- Vessel dark side -->
  <path d="M32 24 L42 30 L46 48 L32 48 Z" fill="#6a4020" opacity=".5"/>
  <!-- Vessel highlight -->
  <path d="M24 30 L22 46 L26 46 L28 30 Z" fill="#e0b070" opacity=".6"/>
  <!-- Ornamental band -->
  <rect x="20" y="36" width="24" height="4" fill="#8a5020" stroke="#1a0e05" stroke-width=".8"/>
  <path d="M22 38 L44 38" stroke="#e0b070" stroke-width=".5" opacity=".7"/>
  <circle cx="26" cy="38" r="1" fill="#3a2010"/>
  <circle cx="32" cy="38" r="1" fill="#3a2010"/>
  <circle cx="38" cy="38" r="1" fill="#3a2010"/>
  <!-- Wick -->
  <rect x="31" y="20" width="2" height="6" fill="#3a2010"/>
  <!-- Outer flame -->
  <path d="M24 24 Q20 16 22 8 Q24 2 32 2 Q40 2 42 8 Q44 16 40 24 Z" fill="#ff8040" stroke="#c04010" stroke-width="1">
    <animate attributeName="opacity" values=".7;1;.7" dur="1.6s" repeatCount="indefinite"/>
  </path>
  <!-- Inner flame -->
  <path d="M27 22 Q24 14 26 8 Q28 3 32 3 Q36 3 38 8 Q40 14 37 22 Z" fill="#ffc040">
    <animate attributeName="opacity" values="1;.75;1" dur="1.2s" repeatCount="indefinite"/>
  </path>
  <!-- Core flame -->
  <ellipse cx="32" cy="12" rx="3" ry="6" fill="#fff4c0">
    <animate attributeName="ry" values="5;7;5" dur=".9s" repeatCount="indefinite"/>
  </ellipse>
  <!-- White hot center -->
  <ellipse cx="32" cy="14" rx="1.5" ry="3" fill="#ffffff">
    <animate attributeName="opacity" values=".6;1;.6" dur=".7s" repeatCount="indefinite"/>
  </ellipse>
  <!-- Rising ember sparkles -->
  <circle cx="28" cy="4" r=".8" fill="#ffc040">
    <animate attributeName="cy" values="8;-4" dur="2s" repeatCount="indefinite"/>
    <animate attributeName="opacity" values="1;0" dur="2s" repeatCount="indefinite"/>
  </circle>
  <circle cx="36" cy="6" r=".6" fill="#ffe080">
    <animate attributeName="cy" values="10;-2" dur="2.4s" begin=".7s" repeatCount="indefinite"/>
    <animate attributeName="opacity" values="1;0" dur="2.4s" begin=".7s" repeatCount="indefinite"/>
  </circle>
</g>
</svg>
