<?xml version="1.0" encoding="UTF-8"?>
<svg xmlns="http://www.w3.org/2000/svg" viewBox="0 0 64 64" width="64" height="64">
  <title>Ramo robusto</title>
  <rect width="64" height="64" fill="#1a1208" rx="4"/>
  <g>
  <!-- Main branch core -->
  <path d="M6 52 Q20 40 30 32 T54 12" stroke="#8a5a30" stroke-width="7" fill="none" stroke-linecap="round"/>
  <!-- Dark underside shadow -->
  <path d="M8 54 Q22 42 32 34 T56 14" stroke="#4a2812" stroke-width="2" fill="none" stroke-linecap="round" opacity=".7"/>
  <!-- Upper highlight -->
  <path d="M6 50 Q20 38 30 30 T54 10" stroke="#a87040" stroke-width="1.5" fill="none" stroke-linecap="round" opacity=".8"/>
  <!-- Bark grain streaks -->
  <path d="M14 46 Q18 42 22 40 M26 36 Q30 32 34 30 M40 24 Q44 20 48 18" stroke="#3a2010" stroke-width=".6" fill="none" opacity=".6"/>
  <!-- Side branches -->
  <path d="M30 32 L20 22" stroke="#8a5a30" stroke-width="4" stroke-linecap="round"/>
  <path d="M30 32 L20 22" stroke="#4a2812" stroke-width="1" stroke-linecap="round" opacity=".7"/>
  <path d="M38 24 L46 16" stroke="#8a5a30" stroke-width="3.5" stroke-linecap="round"/>
  <path d="M38 24 L46 16" stroke="#4a2812" stroke-width=".8" stroke-linecap="round" opacity=".7"/>
  <path d="M16 46 L8 52" stroke="#8a5a30" stroke-width="3" stroke-linecap="round"/>
  <!-- Broken end rings -->
  <circle cx="6" cy="52" r="2.5" fill="#6a4020" stroke="#1a0e05" stroke-width=".8"/>
  <circle cx="6" cy="52" r="1" fill="#3a2010"/>
  <circle cx="54" cy="12" r="2.2" fill="#6a4020" stroke="#1a0e05" stroke-width=".8"/>
  <circle cx="54" cy="12" r=".8" fill="#3a2010"/>
  <!-- Knots -->
  <circle cx="24" cy="38" r="1.5" fill="#3a2010" opacity=".8"/>
  <circle cx="42" cy="22" r="1.2" fill="#3a2010" opacity=".8"/>
</g>
</svg>
