<?xml version="1.0" encoding="UTF-8"?>
<svg xmlns="http://www.w3.org/2000/svg" viewBox="0 0 64 64" width="64" height="64">
  <title>Ruota dentata di ferro</title>
  <rect width="64" height="64" fill="#1a1208" rx="4"/>
  <g transform="translate(32 32)"><g fill="#5a5860" stroke="#1a0e05" stroke-width="1.5"><rect x="-3" y="-28" width="6" height="8" transform="rotate(0)"/><rect x="-3" y="-28" width="6" height="8" transform="rotate(30)"/><rect x="-3" y="-28" width="6" height="8" transform="rotate(60)"/><rect x="-3" y="-28" width="6" height="8" transform="rotate(90)"/><rect x="-3" y="-28" width="6" height="8" transform="rotate(120)"/><rect x="-3" y="-28" width="6" height="8" transform="rotate(150)"/><rect x="-3" y="-28" width="6" height="8" transform="rotate(180)"/><rect x="-3" y="-28" width="6" height="8" transform="rotate(210)"/><rect x="-3" y="-28" width="6" height="8" transform="rotate(240)"/><rect x="-3" y="-28" width="6" height="8" transform="rotate(270)"/><rect x="-3" y="-28" width="6" height="8" transform="rotate(300)"/><rect x="-3" y="-28" width="6" height="8" transform="rotate(330)"/></g><circle r="20" fill="#707068" stroke="#1a0e05" stroke-width="2"/><circle r="14" fill="none" stroke="#1a0e05" stroke-width="1.5"/><circle r="4" fill="#1a0e05"/></g>
</svg>
