<?xml version="1.0" encoding="UTF-8"?>
<svg xmlns="http://www.w3.org/2000/svg" viewBox="0 0 64 64" width="64" height="64">
  <title>Torcia artigianale</title>
  <rect width="64" height="64" fill="#1a1208" rx="4"/>
  <g>
  <!-- Handle with grain -->
  <rect x="28" y="32" width="8" height="28" fill="#8a5a30" stroke="#1a0e05" stroke-width="2"/>
  <line x1="28" y1="38" x2="36" y2="38" stroke="#5a3010" stroke-width=".5" opacity=".8"/>
  <line x1="28" y1="46" x2="36" y2="46" stroke="#5a3010" stroke-width=".5" opacity=".8"/>
  <line x1="28" y1="54" x2="36" y2="54" stroke="#5a3010" stroke-width=".5" opacity=".8"/>
  <!-- Wrap -->
  <path d="M20 32 L44 32 L38 22 L26 22 Z" fill="#5a3820" stroke="#1a0e05" stroke-width="2"/>
  <line x1="24" y1="26" x2="40" y2="26" stroke="#3a2010" stroke-width=".8"/>
  <line x1="22" y1="30" x2="42" y2="30" stroke="#3a2010" stroke-width=".8"/>
  <!-- Outer flame -->
  <path d="M20 22 Q32 -2 44 22 Q32 10 20 22 Z" fill="#ff6020" stroke="#c04010" stroke-width="1.5">
    <animate attributeName="opacity" values="0.75;1;0.75" dur="1.2s" repeatCount="indefinite"/>
  </path>
  <!-- Inner flame -->
  <path d="M26 20 Q32 4 38 20 Q32 12 26 20 Z" fill="#ffc040">
    <animate attributeName="opacity" values="1;0.7;1" dur="0.8s" repeatCount="indefinite"/>
  </path>
  <!-- Core hot spot -->
  <ellipse cx="32" cy="14" rx="3" ry="5" fill="#fff0a0">
    <animate attributeName="rx" values="2;3.5;2" dur="1s" repeatCount="indefinite"/>
  </ellipse>
</g>
</svg>
